# This file uses centimeters as units for non-parametric coordinates.

mtllib lowPolyRailFloor.mtl
g default
v -12.000000 1.127061 12.000000
v -9.655993 0.000000 12.000000
v 0.000000 0.000000 12.000000
v 9.655993 0.000000 12.000000
v 12.000000 1.127061 12.000000
v -12.000000 1.127061 -12.000000
v -9.655993 0.000000 -12.000000
v 0.000000 0.000000 -12.000000
v 9.655993 0.000000 -12.000000
v 12.000000 1.127061 -12.000000
v -5.979919 0.028252 12.000000
v -5.979919 0.028252 -12.000000
v 5.979919 0.028252 12.000000
v 5.979919 0.028252 -12.000000
vt 0.000000 0.000000
vt 0.141111 0.000000
vt 0.500000 0.000000
vt 0.858889 0.000000
vt 1.000000 0.000000
vt 0.000000 1.000000
vt 0.141111 1.000000
vt 0.500000 1.000000
vt 0.858889 1.000000
vt 1.000000 1.000000
vt 0.277742 0.000000
vt 0.277742 1.000000
vt 0.722258 0.000000
vt 0.722258 1.000000
vn 0.433336 0.901232 0.000000
vn 0.179557 0.983747 0.000000
vn 0.179557 0.983747 0.000000
vn 0.433336 0.901232 0.000000
vn 0.000000 1.000000 0.000000
vn 0.000000 1.000000 0.000000
vn 0.000000 1.000000 0.000000
vn -0.000000 1.000000 0.000000
vn -0.000000 1.000000 0.000000
vn 0.000000 1.000000 0.000000
vn -0.179557 0.983747 0.000000
vn -0.433336 0.901232 0.000000
vn -0.433336 0.901232 0.000000
vn -0.179557 0.983747 0.000000
s 1
g pPlane1 group4
usemtl lambert3SG
f 1/1/1 2/2/2 7/7/3 6/6/4
f 2/2/2 11/11/5 12/12/6 7/7/3
f 3/3/7 13/13/8 14/14/9 8/8/10
f 4/4/11 5/5/12 10/10/13 9/9/14
f 11/11/5 3/3/7 8/8/10 12/12/6
f 13/13/8 4/4/11 9/9/14 14/14/9
