# This file uses centimeters as units for non-parametric coordinates.

mtllib lowPolyCeilingStairs.mtl
g default
v -38.000000 16.458275 12.000000
v -38.000000 16.458275 -12.000000
v -28.000000 16.458275 12.000000
v -28.000000 16.458275 -12.000000
v -10.000000 16.458275 -12.000000
v -10.000000 16.458275 12.000000
v -28.000000 14.575099 12.000000
v -10.000000 14.575099 12.000000
v -10.000000 14.575099 -12.000000
v -28.000000 14.575099 -12.000000
v 0.000000 16.458275 12.000000
v 0.000000 16.458275 -12.000000
v -28.000000 15.256977 12.000000
v -10.000000 15.256977 12.000000
v -10.000000 15.256977 -12.000000
v -28.000000 15.256977 -12.000000
v -10.924853 16.458275 12.000000
v -10.924853 15.256977 12.000000
v -10.924853 15.256977 -12.000000
v -10.924853 16.458275 -12.000000
v -27.075148 16.458275 -12.000000
v -27.075148 15.256977 -12.000000
v -27.075148 15.256977 12.000000
v -27.075148 16.458275 12.000000
v -19.000000 14.575098 12.000000
v 0.000000 16.458275 8.000000
v -10.000000 16.458275 8.000000
v -10.924852 16.458275 8.000000
v -10.924852 15.256977 8.000000
v -10.000000 15.256977 8.000000
v -10.000000 14.575099 8.000000
v -19.000000 14.575098 8.000000
v -28.000000 14.575099 8.000000
v -28.000000 15.256977 8.000000
v -27.075146 15.256977 8.000000
v -27.075146 16.458275 8.000000
v -28.000000 16.458275 8.000000
v -38.000000 16.458275 8.000000
v -22.784603 14.575099 -12.000000
v -22.784603 14.575099 8.000000
v -22.784603 14.575099 12.000000
v -15.215399 14.575099 12.000000
v -15.215399 14.575099 8.000000
v -15.215399 14.575099 -12.000000
v -22.784603 23.382093 -12.000000
v -22.784603 23.382093 8.000000
v -19.000000 23.382093 -12.000000
v -19.000000 23.382093 8.000000
v -15.215399 23.382093 -12.000000
v -15.215399 23.382093 8.000000
v -19.000000 14.575099 -12.000000
vt 0.015142 0.506094
vt 0.015142 0.001992
vt 0.225184 0.001992
vt 0.225184 0.506094
vt 0.244610 0.001992
vt 0.244610 0.506094
vt 0.560326 0.998008
vt 0.560326 0.509725
vt 0.926538 0.509725
vt 0.926538 0.998008
vt 0.983668 0.998008
vt 0.959227 0.998008
vt 0.959227 0.509725
vt 0.983668 0.509725
vt 0.503197 0.509725
vt 0.527637 0.509725
vt 0.527637 0.998008
vt 0.503197 0.998008
vt 0.940411 0.509725
vt 0.940411 0.998008
vt 0.546453 0.509725
vt 0.546453 0.998008
vt 0.480656 0.001992
vt 0.480656 0.506094
vt 0.270613 0.506094
vt 0.270613 0.001992
vt 0.251188 0.506094
vt 0.251188 0.001992
vt 0.739764 0.998008
vt 0.480656 0.380289
vt 0.270613 0.380289
vt 0.983668 0.876151
vt 0.251188 0.380289
vt 0.959227 0.876151
vt 0.940411 0.876151
vt 0.926538 0.876151
vt 0.739764 0.876151
vt 0.560326 0.876151
vt 0.546453 0.876151
vt 0.527637 0.876151
vt 0.503197 0.876151
vt 0.244610 0.380289
vt 0.225184 0.380289
vt 0.015142 0.380289
vt 0.664308 0.509725
vt 0.664309 0.876151
vt 0.664309 0.998008
vt 0.818305 0.998008
vt 0.818305 0.876151
vt 0.818305 0.509725
vt 0.334376 0.644052
vt 0.414700 0.644006
vt 0.414700 0.775944
vt 0.109831 0.550810
vt 0.252519 0.644099
vt 0.027968 0.550816
vt 0.191728 0.984495
vt 0.334376 0.830998
vt 0.252519 0.830998
vt 0.416205 0.962843
vt 0.252519 0.962843
vt 0.334376 0.962843
vt 0.578099 0.245339
vt 0.578099 0.054661
vt 0.922974 0.054661
vt 0.922974 0.245339
vt 0.922974 0.478387
vt 0.922974 0.287710
vt 0.578099 0.287710
vt 0.578099 0.478387
vt 0.252519 0.776038
vt 0.334376 0.775991
vt 0.109849 0.984471
vt 0.027966 0.984472
vt 0.191730 0.550790
vt 0.416205 0.830998
vn 0.000000 -1.000000 0.000000
vn 0.000000 -1.000000 0.000000
vn 0.000000 -1.000000 0.000000
vn 0.000000 -1.000000 0.000000
vn 1.000000 0.000000 -0.000000
vn 1.000000 0.000000 -0.000000
vn 1.000000 0.000000 -0.000000
vn 1.000000 0.000000 -0.000000
vn -1.000000 0.000000 0.000000
vn -1.000000 0.000000 0.000000
vn -1.000000 0.000000 0.000000
vn -1.000000 0.000000 0.000000
vn 0.000000 -1.000000 0.000000
vn 0.000000 -1.000000 0.000000
vn 0.000000 -1.000000 0.000000
vn 0.000000 -1.000000 0.000000
vn 1.000000 0.000000 0.000000
vn 1.000000 0.000000 0.000000
vn 1.000000 0.000000 0.000000
vn 1.000000 0.000000 0.000000
vn -1.000000 0.000000 0.000000
vn -1.000000 0.000000 0.000000
vn -1.000000 0.000000 0.000000
vn -1.000000 0.000000 0.000000
vn 0.000000 1.000000 0.000000
vn 0.000000 1.000000 0.000000
vn 0.000000 1.000000 0.000000
vn 0.000000 1.000000 0.000000
vn 0.000000 -1.000000 0.000000
vn 0.000000 -1.000000 0.000000
vn 0.000000 -1.000000 0.000000
vn 0.000000 -1.000000 0.000000
vn 0.000000 1.000000 0.000000
vn 0.000000 1.000000 0.000000
vn 0.000000 1.000000 0.000000
vn 0.000000 1.000000 0.000000
vn 0.000000 -1.000000 0.000000
vn 0.000000 -1.000000 0.000000
vn 0.000000 -1.000000 0.000000
vn 0.000000 -1.000000 0.000000
vn 0.000000 -1.000000 0.000000
vn 0.000000 -1.000000 0.000000
vn 0.000000 -1.000000 0.000000
vn 0.000000 -1.000000 0.000000
vn 0.000000 -1.000000 -0.000000
vn 0.000000 -1.000000 -0.000000
vn 0.000000 -1.000000 -0.000000
vn 0.000000 -1.000000 -0.000000
vn 1.000000 0.000000 0.000000
vn 1.000000 0.000000 0.000000
vn 1.000000 0.000000 0.000000
vn 1.000000 0.000000 0.000000
vn 0.000000 1.000000 0.000000
vn 0.000000 1.000000 0.000000
vn 0.000000 1.000000 0.000000
vn 0.000000 1.000000 0.000000
vn 1.000000 0.000000 0.000000
vn 1.000000 0.000000 0.000000
vn 1.000000 0.000000 0.000000
vn 1.000000 0.000000 0.000000
vn 0.000000 -1.000000 0.000000
vn 0.000000 -1.000000 0.000000
vn 0.000000 -1.000000 0.000000
vn 0.000000 -1.000000 0.000000
vn 0.000000 -1.000000 0.000000
vn 0.000000 -1.000000 0.000000
vn 0.000000 -1.000000 0.000000
vn 0.000000 -1.000000 0.000000
vn -1.000000 0.000000 0.000000
vn -1.000000 0.000000 0.000000
vn -1.000000 0.000000 0.000000
vn -1.000000 0.000000 0.000000
vn 0.000000 1.000000 -0.000000
vn 0.000000 1.000000 -0.000000
vn 0.000000 1.000000 -0.000000
vn 0.000000 1.000000 -0.000000
vn -1.000000 0.000000 -0.000000
vn -1.000000 0.000000 -0.000000
vn -1.000000 0.000000 -0.000000
vn -1.000000 0.000000 -0.000000
vn 0.000000 -1.000000 0.000000
vn 0.000000 -1.000000 0.000000
vn 0.000000 -1.000000 0.000000
vn 0.000000 -1.000000 0.000000
vn 0.000000 -1.000000 0.000000
vn 0.000000 -1.000000 0.000000
vn 0.000000 -1.000000 0.000000
vn 0.000000 -1.000000 0.000000
vn -0.000000 -1.000000 0.000000
vn -0.000000 -1.000000 0.000000
vn -0.000000 -1.000000 0.000000
vn -0.000000 -1.000000 0.000000
vn 0.000000 -1.000000 0.000000
vn 0.000000 -1.000000 0.000000
vn 0.000000 -1.000000 0.000000
vn 0.000000 -1.000000 0.000000
vn 0.000000 0.000000 -1.000000
vn 0.000000 0.000000 -1.000000
vn 0.000000 0.000000 -1.000000
vn 0.000000 0.000000 -1.000000
vn 0.000000 0.000000 -1.000000
vn 0.000000 0.000000 -1.000000
vn 0.000000 0.000000 -1.000000
vn 0.000000 0.000000 -1.000000
vn 0.000000 -1.000000 0.000000
vn 0.000000 -1.000000 0.000000
vn 0.000000 -1.000000 0.000000
vn 0.000000 -1.000000 0.000000
vn 0.000000 -1.000000 0.000000
vn 0.000000 -1.000000 0.000000
vn 0.000000 -1.000000 0.000000
vn 0.000000 -1.000000 0.000000
vn 0.000000 -1.000000 0.000000
vn 0.000000 -1.000000 0.000000
vn 0.000000 -1.000000 0.000000
vn 0.000000 -1.000000 0.000000
vn 0.000000 -1.000000 0.000000
vn 0.000000 -1.000000 0.000000
vn 0.000000 -1.000000 0.000000
vn 0.000000 -1.000000 0.000000
vn 1.000000 0.000000 0.000000
vn 1.000000 0.000000 0.000000
vn 1.000000 0.000000 0.000000
vn 1.000000 0.000000 0.000000
vn -1.000000 0.000000 0.000000
vn -1.000000 0.000000 0.000000
vn -1.000000 0.000000 0.000000
vn -1.000000 0.000000 0.000000
vn 0.000000 0.000000 1.000000
vn 0.000000 0.000000 1.000000
vn 0.000000 0.000000 1.000000
vn 0.000000 0.000000 1.000000
vn 0.000000 0.000000 1.000000
vn 0.000000 0.000000 1.000000
vn 0.000000 0.000000 1.000000
vn 0.000000 0.000000 1.000000
s off
g polySurface137
usemtl lambert14SG
f 38/44/1 2/2/2 4/3/3 37/43/4
f 28/32/5 29/34/6 19/13/7 20/14/8
f 21/15/9 22/16/10 35/40/11 36/41/12
f 12/23/13 26/30/14 27/31/15 5/26/16
f 15/19/17 30/35/18 31/36/19 9/9/20
f 34/39/21 16/21/22 10/8/23 33/38/24
f 30/35/25 15/19/26 19/13/27 29/34/28
f 5/26/29 27/31/30 28/33/31 20/28/32
f 16/21/33 34/39/34 35/40/35 22/16/36
f 37/43/37 4/3/38 21/5/39 36/42/40
f 27/31/41 26/30/42 11/24/43 6/25/44
f 28/33/45 27/31/46 6/25/47 17/27/48
f 17/11/49 18/12/50 29/34/51 28/32/52
f 14/20/53 30/35/54 29/34/55 18/12/56
f 31/36/57 30/35/58 14/20/59 8/10/60
f 42/48/61 43/49/62 31/36/63 8/10/64
f 7/7/65 33/38/66 40/46/67 41/47/68
f 13/22/69 34/39/70 33/38/71 7/7/72
f 35/40/73 34/39/74 13/22/75 23/17/76
f 36/41/77 35/40/78 23/17/79 24/18/80
f 3/4/81 37/43/82 36/42/83 24/6/84
f 1/1/85 38/44/86 37/43/87 3/4/88
f 41/47/89 40/46/90 32/37/91 25/29/92
f 25/29/93 32/37/94 43/49/95 42/48/96
f 32/51/97 40/52/98 46/53/99 48/72/100
f 43/55/101 32/51/102 48/72/103 50/71/104
f 40/46/105 33/38/106 10/8/107 39/45/108
f 31/36/109 43/49/110 44/50/111 9/9/112
f 48/54/113 46/75/114 45/57/115 47/73/116
f 50/56/117 48/54/118 47/73/119 49/74/120
f 46/63/121 40/64/122 39/65/123 45/66/124
f 49/67/125 44/68/126 43/69/127 50/70/128
f 47/58/129 51/62/130 44/61/131 49/59/132
f 51/62/133 47/58/134 45/76/135 39/60/136
