# This file uses centimeters as units for non-parametric coordinates.

mtllib lowPolyWall.mtl
g default
v 18.928204 5.000000 12.000000
v 18.928204 5.000000 -12.000000
v 18.928204 16.458275 12.000000
v 18.928204 16.458275 -12.000000
vt -0.000000 0.261286
vt -0.000000 0.738714
vt 1.000000 0.738714
vt 1.000000 0.261286
vn -1.000000 0.000000 0.000000
vn -1.000000 0.000000 0.000000
vn -1.000000 0.000000 0.000000
vn -1.000000 0.000000 0.000000
s off
g pPlane18
usemtl initialShadingGroup
f 1/1/1 3/2/2 4/3/3 2/4/4
