# This file uses centimeters as units for non-parametric coordinates.

mtllib lowPolyColumn.mtl
g default
v 1.000000 -0.000001 5.000000
v 1.000000 -0.000001 -5.000000
v 1.000000 13.000000 5.000000
v 1.000000 13.000000 -5.000000
v 1.866030 13.000000 6.014424
v 1.866030 13.000000 -6.014424
v 1.866030 16.458275 6.014424
v 1.866030 16.458275 -6.014424
v 0.000000 16.458275 6.014424
v 0.000000 13.000000 6.014424
v 0.000000 13.000000 5.000000
v 0.000000 -0.000001 5.000000
v 0.000000 16.458275 -6.014424
v 0.000000 13.000000 -6.014424
v 0.000000 13.000000 -5.000000
v 0.000000 -0.000001 -5.000000
v -1.000000 -0.000001 5.000000
v -1.000000 -0.000001 -5.000000
v -1.000000 13.000000 5.000000
v -1.000000 13.000000 -5.000000
v -1.866030 13.000000 6.014424
v -1.866030 13.000000 -6.014424
v -1.866030 16.458275 6.014424
v -1.866030 16.458275 -6.014424
vt 0.355057 0.583828
vt 0.255427 0.583828
vt 0.255427 0.034873
vt 0.355057 0.034873
vt 0.645366 0.034873
vt 0.645366 0.583828
vt 0.743260 0.709314
vt 0.249439 0.709314
vt 0.249439 0.988077
vt 0.743260 0.988077
vt 0.853340 0.988077
vt 0.853340 0.709314
vt 0.743260 0.630221
vt 0.249439 0.630221
vt 0.744643 0.034873
vt 0.744643 0.583828
vt 0.853340 0.630221
vt 0.141472 0.709314
vt 0.141472 0.630221
vt 0.141472 0.988077
vt 0.355057 0.583828
vt 0.255427 0.583828
vt 0.255427 0.034873
vt 0.355057 0.034873
vt 0.645366 0.034873
vt 0.645366 0.583828
vt 0.743260 0.709314
vt 0.249439 0.709314
vt 0.249439 0.988077
vt 0.743260 0.988077
vt 0.853340 0.988077
vt 0.853340 0.709314
vt 0.743260 0.630221
vt 0.249439 0.630221
vt 0.853340 0.630221
vt 0.141472 0.709314
vt 0.141472 0.988077
vt 0.141472 0.630221
vt 0.744643 0.034873
vt 0.744643 0.583828
vn 0.000000 0.000000 -1.000000
vn 0.000000 0.000000 -1.000000
vn 0.000000 0.000000 -1.000000
vn 0.000000 0.000000 -1.000000
vn 1.000000 0.000000 0.000000
vn 1.000000 0.000000 0.000000
vn 1.000000 0.000000 0.000000
vn 1.000000 0.000000 0.000000
vn 1.000000 0.000000 0.000000
vn 1.000000 0.000000 0.000000
vn 1.000000 0.000000 0.000000
vn 1.000000 0.000000 0.000000
vn 0.000000 0.000000 -1.000000
vn 0.000000 0.000000 -1.000000
vn 0.000000 0.000000 -1.000000
vn 0.000000 0.000000 -1.000000
vn 0.000000 -1.000000 0.000000
vn 0.000000 -1.000000 0.000000
vn 0.000000 -1.000000 0.000000
vn 0.000000 -1.000000 0.000000
vn 0.000000 -1.000000 0.000000
vn 0.000000 -1.000000 0.000000
vn 0.000000 -1.000000 0.000000
vn 0.000000 -1.000000 0.000000
vn 0.000000 0.000000 1.000000
vn 0.000000 0.000000 1.000000
vn 0.000000 0.000000 1.000000
vn 0.000000 0.000000 1.000000
vn 0.000000 -1.000000 0.000000
vn 0.000000 -1.000000 0.000000
vn 0.000000 -1.000000 0.000000
vn 0.000000 -1.000000 0.000000
vn 0.000000 0.000000 1.000000
vn 0.000000 0.000000 1.000000
vn 0.000000 0.000000 1.000000
vn 0.000000 0.000000 1.000000
vn 0.000000 0.000000 -1.000000
vn 0.000000 0.000000 -1.000000
vn 0.000000 0.000000 -1.000000
vn 0.000000 0.000000 -1.000000
vn -1.000000 0.000000 0.000000
vn -1.000000 0.000000 0.000000
vn -1.000000 0.000000 0.000000
vn -1.000000 0.000000 0.000000
vn -1.000000 0.000000 0.000000
vn -1.000000 0.000000 0.000000
vn -1.000000 0.000000 0.000000
vn -1.000000 0.000000 0.000000
vn 0.000000 0.000000 -1.000000
vn 0.000000 0.000000 -1.000000
vn 0.000000 0.000000 -1.000000
vn 0.000000 0.000000 -1.000000
vn 0.000000 -1.000000 0.000000
vn 0.000000 -1.000000 0.000000
vn 0.000000 -1.000000 0.000000
vn 0.000000 -1.000000 0.000000
vn 0.000000 -1.000000 0.000000
vn 0.000000 -1.000000 0.000000
vn 0.000000 -1.000000 0.000000
vn 0.000000 -1.000000 0.000000
vn 0.000000 0.000000 1.000000
vn 0.000000 0.000000 1.000000
vn 0.000000 0.000000 1.000000
vn 0.000000 0.000000 1.000000
vn 0.000000 -1.000000 0.000000
vn 0.000000 -1.000000 0.000000
vn 0.000000 -1.000000 0.000000
vn 0.000000 -1.000000 0.000000
vn 0.000000 0.000000 1.000000
vn 0.000000 0.000000 1.000000
vn 0.000000 0.000000 1.000000
vn 0.000000 0.000000 1.000000
s off
g polySurface41
usemtl initialShadingGroup
f 4/1/1 2/4/2 16/3/3 15/2/4
f 2/4/5 4/1/6 3/6/7 1/5/8
f 6/7/9 8/10/10 7/9/11 5/8/12
f 8/10/13 6/7/14 14/12/15 13/11/16
f 4/13/17 6/7/18 5/8/19 3/14/20
f 15/17/21 14/12/22 6/7/23 4/13/24
f 5/8/25 7/9/26 9/20/27 10/18/28
f 3/14/29 5/8/30 10/18/31 11/19/32
f 1/5/33 3/6/34 11/16/35 12/15/36
f 20/21/37 15/22/38 16/23/39 18/24/40
f 18/24/41 17/25/42 19/26/43 20/21/44
f 22/27/45 21/28/46 23/29/47 24/30/48
f 24/30/49 13/31/50 14/32/51 22/27/52
f 20/33/53 19/34/54 21/28/55 22/27/56
f 15/35/57 20/33/58 22/27/59 14/32/60
f 21/28/61 10/36/62 9/37/63 23/29/64
f 19/34/65 11/38/66 10/36/67 21/28/68
f 17/25/69 12/39/70 11/40/71 19/26/72
