# This file uses centimeters as units for non-parametric coordinates.

mtllib lowPolyCeiling.mtl
g default
v -38.000000 16.458275 12.000000
v -38.000000 16.458275 -12.000000
v -28.000000 16.458275 12.000000
v -28.000000 16.458275 -12.000000
v -10.000000 16.458275 -12.000000
v -10.000000 16.458275 12.000000
v -28.000000 14.575099 12.000000
v -10.000000 14.575099 12.000000
v -10.000000 14.575099 -12.000000
v -28.000000 14.575099 -12.000000
v 0.000000 16.458275 12.000000
v 0.000000 16.458275 -12.000000
v -28.000000 15.256977 12.000000
v -10.000000 15.256977 12.000000
v -10.000000 15.256977 -12.000000
v -28.000000 15.256977 -12.000000
v -10.924853 16.458275 12.000000
v -10.924853 15.256977 12.000000
v -10.924853 15.256977 -12.000000
v -10.924853 16.458275 -12.000000
v -27.075148 16.458275 -12.000000
v -27.075148 15.256977 -12.000000
v -27.075148 15.256977 12.000000
v -27.075148 16.458275 12.000000
vt 0.015142 0.506094
vt 0.015142 0.001992
vt 0.225184 0.001992
vt 0.225184 0.506094
vt 0.244610 0.001992
vt 0.244610 0.506094
vt 0.560326 0.998008
vt 0.560326 0.509725
vt 0.926538 0.509725
vt 0.926538 0.998008
vt 0.983668 0.998008
vt 0.959227 0.998008
vt 0.959227 0.509725
vt 0.983668 0.509725
vt 0.503197 0.509725
vt 0.527637 0.509725
vt 0.527637 0.998008
vt 0.503197 0.998008
vt 0.940411 0.509725
vt 0.940411 0.998008
vt 0.546453 0.509725
vt 0.546453 0.998008
vt 0.480656 0.001992
vt 0.480656 0.506094
vt 0.270613 0.506094
vt 0.270613 0.001992
vt 0.251188 0.506094
vt 0.251188 0.001992
vn 0.000000 -1.000000 0.000000
vn 0.000000 -1.000000 0.000000
vn 0.000000 -1.000000 0.000000
vn 0.000000 -1.000000 0.000000
vn 0.000000 -1.000000 0.000000
vn 0.000000 -1.000000 0.000000
vn 0.000000 -1.000000 0.000000
vn 0.000000 -1.000000 0.000000
vn 1.000000 0.000000 0.000000
vn 1.000000 0.000000 0.000000
vn 1.000000 0.000000 0.000000
vn 1.000000 0.000000 0.000000
vn -1.000000 0.000000 0.000000
vn -1.000000 0.000000 0.000000
vn -1.000000 0.000000 0.000000
vn -1.000000 0.000000 0.000000
vn 0.000000 -1.000000 0.000000
vn 0.000000 -1.000000 0.000000
vn 0.000000 -1.000000 0.000000
vn 0.000000 -1.000000 0.000000
vn 1.000000 0.000000 0.000000
vn 1.000000 0.000000 0.000000
vn 1.000000 0.000000 0.000000
vn 1.000000 0.000000 0.000000
vn -1.000000 0.000000 0.000000
vn -1.000000 0.000000 0.000000
vn -1.000000 0.000000 0.000000
vn -1.000000 0.000000 0.000000
vn 0.000000 1.000000 0.000000
vn 0.000000 1.000000 0.000000
vn 0.000000 1.000000 0.000000
vn 0.000000 1.000000 0.000000
vn 0.000000 -1.000000 0.000000
vn 0.000000 -1.000000 0.000000
vn 0.000000 -1.000000 0.000000
vn 0.000000 -1.000000 0.000000
vn 0.000000 1.000000 0.000000
vn 0.000000 1.000000 0.000000
vn 0.000000 1.000000 0.000000
vn 0.000000 1.000000 0.000000
vn 0.000000 -1.000000 0.000000
vn 0.000000 -1.000000 0.000000
vn 0.000000 -1.000000 0.000000
vn 0.000000 -1.000000 0.000000
s off
g pPlane38
usemtl initialShadingGroup
f 1/1/1 2/2/2 4/3/3 3/4/4
f 7/7/5 10/8/6 9/9/7 8/10/8
f 17/11/9 18/12/10 19/13/11 20/14/12
f 21/15/13 22/16/14 23/17/15 24/18/16
f 12/23/17 11/24/18 6/25/19 5/26/20
f 15/19/21 14/20/22 8/10/23 9/9/24
f 13/22/25 16/21/26 10/8/27 7/7/28
f 14/20/29 15/19/30 19/13/31 18/12/32
f 5/26/33 6/25/34 17/27/35 20/28/36
f 16/21/37 13/22/38 23/17/39 22/16/40
f 3/4/41 4/3/42 21/5/43 24/6/44
