# This file uses centimeters as units for non-parametric coordinates.

mtllib lowpolySign.mtl
g default
v 18.358555 10.338898 2.765370
v 18.928204 10.338898 2.765370
v 18.358555 10.338898 -2.765469
v 18.928204 10.338898 -2.765469
v 18.358555 11.661097 2.765370
v 18.928204 11.661097 2.765370
v 18.928204 11.661097 -2.765469
v 18.358555 11.661097 -2.765469
v 18.358555 10.403237 -2.829809
v 18.928204 10.403237 -2.829809
v 18.358555 11.596757 -2.829809
v 18.928204 11.596757 -2.829809
v 18.358555 10.403237 2.829809
v 18.928204 10.403237 2.829809
v 18.928204 11.596757 2.829809
v 18.358555 11.596757 2.829809
v 18.312248 10.386613 2.719526
v 18.312248 10.386613 -2.719623
v 18.312248 11.613381 2.719526
v 18.312248 11.613381 -2.719623
v 18.312248 11.553685 -2.782897
v 18.312248 10.446309 -2.782897
v 18.312248 10.446309 2.782898
v 18.312248 11.553685 2.782898
v 18.312248 10.489574 2.591239
v 18.312248 10.489574 -2.591331
v 18.312248 11.510420 2.591239
v 18.312248 11.510420 -2.591331
v 18.312248 11.460744 -2.651620
v 18.312248 10.539250 -2.651620
v 18.312248 10.539250 2.651621
v 18.312248 11.460744 2.651621
v 18.929129 10.489574 2.591239
v 18.929129 10.489574 -2.591331
v 18.929129 11.510420 2.591239
v 18.929129 11.510420 -2.591331
v 18.929129 11.460744 -2.651620
v 18.929129 10.539250 -2.651620
v 18.929129 10.539250 2.651621
v 18.929129 11.460744 2.651621
vt 0.288131 0.053283
vt 0.439971 0.053283
vt 0.439971 0.382178
vt 0.288131 0.382178
vt 0.011914 0.850432
vt 0.011676 0.749005
vt 0.988322 0.749005
vt 0.988087 0.850423
vt 0.966058 0.054779
vt 0.813946 0.054779
vt 0.813946 0.383674
vt 0.966058 0.383674
vt 0.966058 0.031025
vt 0.813946 0.031025
vt 0.813946 0.407849
vt 0.966058 0.407849
vt 0.288131 0.029528
vt 0.439971 0.029528
vt 0.439971 0.406353
vt 0.288131 0.406353
vt 0.785554 0.373805
vt 0.785554 0.395596
vt 0.785554 0.064594
vt 0.785554 0.042803
vt 0.259740 0.063097
vt 0.259740 0.041306
vt 0.259740 0.372309
vt 0.259740 0.394099
vt 0.756241 0.350872
vt 0.756241 0.372199
vt 0.756241 0.087192
vt 0.756241 0.065676
vt 0.230427 0.085695
vt 0.230427 0.064180
vt 0.230427 0.349376
vt 0.230427 0.370703
vt 0.579309 0.350872
vt 0.579309 0.372199
vt 0.579309 0.087192
vt 0.579309 0.065676
vt 0.053223 0.085695
vt 0.053223 0.064180
vt 0.053223 0.349376
vt 0.053223 0.370703
vt 0.014879 0.581021
vt 0.985122 0.581021
vt 0.985060 0.681176
vt 0.014941 0.681172
vt 0.022914 0.569309
vt 0.977086 0.569309
vt 0.979975 0.862338
vt 0.020026 0.862345
vt 0.045419 0.551167
vt 0.954580 0.551167
vt 0.957251 0.880791
vt 0.042750 0.880794
vt 0.045347 0.442659
vt 0.954651 0.442656
vt 0.956871 0.990684
vt 0.043127 0.990661
vn 0.000000 1.000000 0.000000
vn 0.000000 1.000000 0.000000
vn 0.000000 1.000000 0.000000
vn 0.000000 1.000000 0.000000
vn 0.000000 -1.000000 0.000000
vn 0.000000 -1.000000 0.000000
vn 0.000000 -1.000000 0.000000
vn 0.000000 -1.000000 0.000000
vn 0.000000 0.000000 1.000000
vn 0.000000 0.000000 1.000000
vn 0.000000 0.000000 1.000000
vn 0.000000 0.000000 1.000000
vn 0.000000 0.000000 -1.000000
vn 0.000000 0.000000 -1.000000
vn 0.000000 0.000000 -1.000000
vn 0.000000 0.000000 -1.000000
vn 0.000000 -0.707109 -0.707104
vn 0.000000 -0.707109 -0.707104
vn 0.000000 -0.707109 -0.707104
vn 0.000000 -0.707109 -0.707104
vn 0.000000 0.707109 -0.707104
vn 0.000000 0.707109 -0.707104
vn 0.000000 0.707109 -0.707104
vn 0.000000 0.707109 -0.707104
vn 0.000000 -0.707654 0.706559
vn 0.000000 -0.707654 0.706559
vn 0.000000 -0.707654 0.706559
vn 0.000000 -0.707654 0.706559
vn 0.000000 0.707654 0.706560
vn 0.000000 0.707654 0.706560
vn 0.000000 0.707654 0.706560
vn 0.000000 0.707654 0.706560
vn -0.717620 -0.696435 0.000000
vn -0.717620 -0.696435 0.000000
vn -0.717620 -0.696435 0.000000
vn -0.717620 -0.696435 0.000000
vn -0.717620 0.696435 0.000000
vn -0.717620 0.696435 0.000000
vn -0.717620 0.696435 0.000000
vn -0.717620 0.696435 0.000000
vn -0.813932 0.416600 -0.404919
vn -0.813932 0.416600 -0.404919
vn -0.813932 0.416600 -0.404919
vn -0.813932 0.416600 -0.404919
vn -0.711680 0.000000 -0.702504
vn -0.711680 0.000000 -0.702504
vn -0.711680 0.000000 -0.702504
vn -0.711680 0.000000 -0.702504
vn -0.813932 -0.416600 -0.404919
vn -0.813932 -0.416600 -0.404919
vn -0.813932 -0.416600 -0.404919
vn -0.813932 -0.416600 -0.404919
vn -0.813923 -0.416920 0.404607
vn -0.813923 -0.416920 0.404607
vn -0.813923 -0.416920 0.404607
vn -0.813923 -0.416920 0.404607
vn -0.711682 0.000000 0.702502
vn -0.711682 0.000000 0.702502
vn -0.711682 0.000000 0.702502
vn -0.711682 0.000000 0.702502
vn -0.813923 0.416920 0.404607
vn -0.813923 0.416920 0.404607
vn -0.813923 0.416920 0.404607
vn -0.813923 0.416920 0.404607
vn -1.000000 0.000000 0.000000
vn -1.000000 0.000000 0.000000
vn -1.000000 0.000000 0.000000
vn -1.000000 0.000000 0.000000
vn -1.000000 -0.000000 0.000000
vn -1.000000 -0.000000 0.000000
vn -1.000000 -0.000000 0.000000
vn -1.000000 -0.000000 0.000000
vn -1.000000 -0.000000 0.000000
vn -1.000000 -0.000000 0.000000
vn -1.000000 -0.000000 0.000000
vn -1.000000 -0.000000 0.000000
vn -1.000000 0.000000 0.000000
vn -1.000000 0.000000 0.000000
vn -1.000000 0.000000 0.000000
vn -1.000000 0.000000 0.000000
vn -1.000000 0.000000 0.000000
vn -1.000000 0.000000 0.000000
vn -1.000000 0.000000 0.000000
vn -1.000000 0.000000 0.000000
vn -1.000000 0.000000 0.000000
vn -1.000000 0.000000 0.000000
vn -1.000000 0.000000 0.000000
vn -1.000000 0.000000 0.000000
vn -1.000000 0.000000 0.000000
vn -1.000000 0.000000 0.000000
vn -1.000000 0.000000 0.000000
vn -1.000000 0.000000 0.000000
vn -1.000000 0.000000 0.000000
vn -1.000000 0.000000 0.000000
vn -1.000000 0.000000 0.000000
vn -1.000000 0.000000 0.000000
vn 0.000000 1.000000 0.000000
vn 0.000000 1.000000 0.000000
vn 0.000000 1.000000 0.000000
vn 0.000000 1.000000 0.000000
vn 0.000000 -1.000000 0.000000
vn 0.000000 -1.000000 0.000000
vn 0.000000 -1.000000 0.000000
vn 0.000000 -1.000000 0.000000
vn 0.000000 -0.771765 0.635908
vn 0.000000 -0.771765 0.635908
vn 0.000000 -0.771765 0.635908
vn 0.000000 -0.771765 0.635908
vn 0.000000 0.000000 1.000000
vn 0.000000 0.000000 1.000000
vn 0.000000 0.000000 1.000000
vn 0.000000 0.000000 1.000000
vn 0.000000 0.771765 0.635907
vn 0.000000 0.771765 0.635907
vn 0.000000 0.771765 0.635907
vn 0.000000 0.771765 0.635907
vn 0.000000 0.772246 -0.635324
vn 0.000000 0.772246 -0.635324
vn 0.000000 0.772246 -0.635324
vn 0.000000 0.772246 -0.635324
vn 0.000000 0.000000 -1.000000
vn 0.000000 0.000000 -1.000000
vn 0.000000 0.000000 -1.000000
vn 0.000000 0.000000 -1.000000
vn 0.000000 -0.772246 -0.635324
vn 0.000000 -0.772246 -0.635324
vn 0.000000 -0.772246 -0.635324
vn 0.000000 -0.772246 -0.635324
s off
g pPlane19
usemtl initialShadingGroup
f 5/5/1 6/6/2 7/7/3 8/8/4
f 1/45/5 3/46/6 4/47/7 2/48/8
f 13/1/9 14/2/10 15/3/11 16/4/12
f 10/9/13 9/10/14 11/11/15 12/12/16
f 4/13/17 3/14/18 9/10/19 10/9/20
f 8/15/21 7/16/22 12/12/23 11/11/24
f 1/17/25 2/18/26 14/2/27 13/1/28
f 6/19/29 5/20/30 16/4/31 15/3/32
f 3/46/33 1/45/34 17/49/35 18/50/36
f 5/5/37 8/8/38 20/51/39 19/52/40
f 8/15/41 11/11/42 21/21/43 20/22/44
f 11/11/45 9/10/46 22/23/47 21/21/48
f 9/10/49 3/14/50 18/24/51 22/23/52
f 1/17/53 13/1/54 23/25/55 17/26/56
f 13/1/57 16/4/58 24/27/59 23/25/60
f 16/4/61 5/20/62 19/28/63 24/27/64
f 18/50/65 17/49/66 25/53/67 26/54/68
f 19/52/69 20/51/70 28/55/71 27/56/72
f 20/22/73 21/21/74 29/29/75 28/30/76
f 21/21/77 22/23/78 30/31/79 29/29/80
f 22/23/81 18/24/82 26/32/83 30/31/84
f 17/26/85 23/25/86 31/33/87 25/34/88
f 23/25/89 24/27/90 32/35/91 31/33/92
f 24/27/93 19/28/94 27/36/95 32/35/96
f 26/54/97 25/53/98 33/57/99 34/58/100
f 27/56/101 28/55/102 36/59/103 35/60/104
f 28/30/105 29/29/106 37/37/107 36/38/108
f 29/29/109 30/31/110 38/39/111 37/37/112
f 30/31/113 26/32/114 34/40/115 38/39/116
f 25/34/117 31/33/118 39/41/119 33/42/120
f 31/33/121 32/35/122 40/43/123 39/41/124
f 32/35/125 27/36/126 35/44/127 40/43/128
